<svg width="500" height="200" viewBox="0 0 500 200" fill="none" xmlns="http://www.w3.org/2000/svg">
<rect width="500" height="200" fill="white"/>
<path fill-rule="evenodd" clip-rule="evenodd" d="M192.653 118.199V83.7679H197.099L218.229 111.477V83.7679H222.455V118.199H218.009L196.879 90.2169V118.199H192.653ZM256.866 116.833C254.067 117.871 251.049 118.418 247.865 118.418C235.352 118.418 229.096 112.461 229.096 100.492C229.096 89.1785 235.133 83.4946 247.207 83.4946C250.664 83.4946 253.903 83.9865 256.866 84.9156V88.7413C253.903 87.5936 250.829 87.0471 247.701 87.0471C238.261 87.0471 233.541 91.5286 233.541 100.382C233.541 109.947 238.206 114.701 247.481 114.701C248.963 114.701 250.61 114.483 252.421 114.1V102.569H256.866V116.833ZM264.001 104.919V83.7679H268.446V104.919C268.446 111.532 271.739 114.865 278.38 114.865C284.966 114.865 288.314 111.532 288.314 104.919V83.7679H292.76V104.919C292.76 113.936 287.985 118.473 278.38 118.473C268.776 118.473 264.001 113.936 264.001 104.919ZM305.163 83.7679V114.592H323.274V118.199H300.718V83.7679H305.163ZM329.696 118.199H325.031L342.209 79.2317L359.387 118.199H354.448L350.002 107.378H338.587L339.794 103.771H348.521L342.044 88.1948L329.696 118.199ZM364.162 118.199V83.7679H378.926C385.512 83.7679 388.804 86.5005 388.804 92.0205C388.804 96.502 385.566 99.8359 379.145 101.967L391 118.199H385.127L374.151 102.732V99.8359C380.737 98.7975 384.085 96.2834 384.085 92.2391C384.085 89.0692 382.273 87.4843 378.596 87.4843H368.717V118.199H364.162Z" fill="#B52E31"/>
<path fill-rule="evenodd" clip-rule="evenodd" d="M110 74.5863L145.399 62.0161L181.732 74.3677L175.859 120.987L145.399 137.765L115.433 121.205L110 74.5863Z" fill="#E23237"/>
<path fill-rule="evenodd" clip-rule="evenodd" d="M181.732 74.3677L145.399 62.0161V137.765L175.859 120.987L181.732 74.3677Z" fill="#B52E31"/>
<path fill-rule="evenodd" clip-rule="evenodd" d="M145.454 70.8699L123.392 119.73L131.624 119.566L136.07 108.526H155.772L160.602 119.675L168.45 119.839L145.454 70.8699ZM145.509 86.5553L152.973 102.077H138.978L145.509 86.5553Z" fill="white"/>
</svg>
