<svg width="500" height="200" viewBox="0 0 500 200" fill="none" xmlns="http://www.w3.org/2000/svg">
<rect width="500" height="200" fill="white"/>
<path d="M153.97 66.9802H187.644C197.528 67.0631 204.69 69.9105 209.13 75.5176C213.571 81.1248 215.036 88.7834 213.528 98.4934C212.943 102.93 211.643 107.282 209.633 111.551C207.679 115.858 204.954 119.773 201.591 123.101C197.402 127.453 192.921 130.215 188.147 131.388C183.372 132.56 178.429 133.145 173.32 133.145H158.242L153.467 157H136.001L153.97 66.9802ZM168.671 81.293L161.132 118.958C161.634 119.041 162.137 119.084 162.64 119.084H164.399C172.44 119.167 179.142 118.373 184.503 116.698C189.863 114.941 193.467 108.831 195.309 98.3678C196.817 89.5793 195.309 84.5146 190.785 83.1762C186.345 81.8378 180.776 81.21 174.074 81.293C173.069 81.3759 172.106 81.4185 171.184 81.4185H168.545L168.671 81.293ZM233.424 43H250.764L245.863 66.9802H261.444C269.988 67.1484 276.354 68.9061 280.543 72.2533C284.815 75.6005 286.072 81.9633 284.312 91.337L275.894 133.145H258.303L266.344 93.2203C267.181 89.0345 266.93 86.0639 265.59 84.3062C264.251 82.5485 261.361 81.6696 256.921 81.6696L242.973 81.5441L232.67 133.145H215.33L233.424 43ZM302.933 66.9802H336.607C346.491 67.0631 353.653 69.9105 358.093 75.5176C362.534 81.1248 363.999 88.7834 362.491 98.4934C361.906 102.93 360.606 107.282 358.596 111.551C356.642 115.858 353.917 119.773 350.554 123.101C346.365 127.453 341.884 130.215 337.11 131.388C332.335 132.56 327.392 133.145 322.283 133.145H307.205L302.43 157H284.964L302.933 66.9802ZM317.634 81.293L310.095 118.958C310.597 119.041 311.1 119.084 311.602 119.084H313.362C321.403 119.167 328.105 118.373 333.466 116.698C338.826 114.941 342.43 108.831 344.272 98.3678C345.78 89.5793 344.272 84.5146 339.748 83.1762C335.308 81.8378 329.739 81.21 323.037 81.293C322.031 81.3759 321.069 81.4185 320.147 81.4185H317.508L317.634 81.293Z" fill="black"/>
</svg>
