<svg width="500" height="200" viewBox="0 0 500 200" fill="none" xmlns="http://www.w3.org/2000/svg">
<rect width="500" height="200" fill="white"/>
<g clip-path="url(#clip0_3_27)">
<path d="M197.634 157.207L187 27.2429L314 27.5041L302.755 157.207L250.979 172.199L197.634 157.207Z" fill="#E9CA32"/>
<path d="M250.979 159.648V39.6204L303.279 39.7945L293.953 147.182L250.979 159.648Z" fill="#FFDE25"/>
<path d="M245.379 53.8721H231.553V133.759L220.799 131.711V120.957L207.996 118.908V142.977L245.379 152.707V53.8721ZM255.751 53.8721H294.028L291.468 69.1838H270.363V94.3103H291.468L288.907 145.025L255.751 152.707V136.832L278.153 129.15L279.447 108.154L255.751 111.585V53.8721Z" fill="white"/>
</g>
<defs>
<clipPath id="clip0_3_27">
<rect width="127" height="145.442" fill="white" transform="translate(187 27)"/>
</clipPath>
</defs>
</svg>
