<svg width="500" height="200" viewBox="0 0 500 200" fill="none" xmlns="http://www.w3.org/2000/svg">
<rect width="500" height="200" fill="white"/>
<g clip-path="url(#clip0_3_59)">
<path d="M396.244 85.8818C395.4 85.8818 394.58 86.0555 393.855 86.4651L370.888 99.6917C369.401 100.546 368.498 102.159 368.498 103.875V130.28C368.498 131.995 369.401 133.605 370.888 134.461L376.886 137.914C379.8 139.347 380.874 139.324 382.2 139.324C386.515 139.324 388.978 136.713 388.978 132.176V106.111C388.978 105.743 388.658 105.479 388.296 105.479H385.419C385.05 105.479 384.736 105.743 384.736 106.111V132.176C384.736 134.187 382.635 136.21 379.226 134.51L372.985 130.863C372.764 130.744 372.594 130.532 372.594 130.28V103.874C372.594 103.624 372.762 103.369 372.985 103.242L395.903 90.0647C396.006 90.0044 396.124 89.9726 396.244 89.9726C396.364 89.9726 396.482 90.0044 396.585 90.0647L419.504 103.243C419.722 103.374 419.894 103.616 419.894 103.875V130.281C419.894 130.533 419.767 130.791 419.553 130.912L396.585 144.09C396.389 144.207 396.117 144.207 395.903 144.09L390.002 140.589C389.913 140.541 389.812 140.515 389.71 140.515C389.608 140.515 389.507 140.541 389.417 140.589C387.789 141.51 387.483 141.617 385.955 142.145C385.579 142.276 385.007 142.48 386.15 143.119L393.855 147.64C394.581 148.058 395.406 148.276 396.244 148.273C397.083 148.278 397.907 148.06 398.633 147.641L421.601 134.462C423.087 133.6 423.99 131.995 423.99 130.281V103.875C423.99 102.159 423.087 100.549 421.601 99.6931L398.633 86.4665C397.913 86.0562 397.088 85.8825 396.244 85.8825L396.244 85.8818Z" fill="#83CD29"/>
<path d="M402.388 104.75C395.848 104.75 391.953 107.526 391.953 112.142C391.953 117.149 395.819 118.525 402.096 119.144C409.605 119.877 410.19 120.977 410.19 122.451C410.19 125.008 408.146 126.098 403.315 126.098C397.245 126.098 395.911 124.587 395.464 121.576C395.411 121.253 395.161 120.992 394.83 120.992H391.855C391.489 120.992 391.173 121.307 391.173 121.673C391.173 125.527 393.275 130.085 403.315 130.085C410.582 130.085 414.774 127.241 414.774 122.256C414.774 117.316 411.388 115.989 404.338 115.06C397.215 114.119 396.536 113.659 396.536 111.996C396.536 110.623 397.112 108.786 402.388 108.786C407.101 108.786 408.843 109.799 409.556 112.968C409.619 113.266 409.882 113.503 410.19 113.503H413.165C413.348 113.503 413.526 113.391 413.652 113.26C413.777 113.12 413.865 112.962 413.848 112.774C413.387 107.317 409.738 104.75 402.388 104.75Z" fill="#83CD29"/>
<path d="M261.22 51.2589C260.963 51.259 260.711 51.3259 260.488 51.4528C260.267 51.5821 260.083 51.7667 259.955 51.9884C259.826 52.2102 259.758 52.4614 259.757 52.7174V89.9182C259.757 90.2831 259.587 90.6103 259.27 90.7934C259.114 90.8837 258.938 90.9313 258.758 90.9313C258.578 90.9313 258.401 90.8837 258.246 90.7934L252.15 87.2924C251.706 87.0359 251.201 86.9008 250.687 86.9008C250.174 86.9008 249.669 87.0359 249.224 87.2924L224.892 101.297C223.982 101.821 223.429 102.827 223.429 103.875V131.884C223.429 132.931 223.983 133.889 224.892 134.413L249.224 148.418C249.669 148.675 250.173 148.811 250.687 148.811C251.201 148.811 251.706 148.675 252.15 148.418L276.483 134.413C276.928 134.157 277.298 133.789 277.555 133.345C277.812 132.901 277.947 132.397 277.946 131.884V62.0544C277.945 61.5298 277.805 61.0148 277.539 60.5619C277.274 60.109 276.893 59.7345 276.434 59.4767L261.951 51.4042C261.724 51.2778 261.472 51.2555 261.22 51.2589ZM104.692 86.2226C104.229 86.2408 103.792 86.3219 103.376 86.5625L79.0431 100.568C78.5974 100.823 78.2273 101.191 77.9705 101.636C77.7136 102.08 77.5791 102.583 77.5806 103.096L77.6294 140.687C77.6294 141.209 77.8998 141.695 78.3606 141.951C78.5816 142.083 78.8345 142.153 79.0922 142.153C79.35 142.153 79.6029 142.083 79.8239 141.951L94.2574 133.684C95.1717 133.142 95.7687 132.2 95.7687 131.155V113.6C95.7687 112.553 96.3211 111.592 97.2319 111.071L103.376 107.522C103.82 107.264 104.325 107.13 104.839 107.132C105.34 107.132 105.855 107.257 106.301 107.522L112.446 111.071C112.892 111.326 113.262 111.695 113.519 112.139C113.776 112.583 113.911 113.088 113.909 113.6V131.155C113.909 132.199 114.512 133.148 115.42 133.684L129.854 141.951C130.075 142.083 130.328 142.153 130.585 142.153C130.843 142.153 131.096 142.083 131.317 141.951C131.539 141.822 131.724 141.638 131.852 141.416C131.981 141.194 132.049 140.942 132.049 140.686L132.096 103.096C132.099 102.583 131.965 102.079 131.708 101.634C131.451 101.19 131.08 100.822 130.634 100.568L106.301 86.5625C105.89 86.3219 105.452 86.2415 104.985 86.2226H104.692ZM323.343 86.5625C322.835 86.5625 322.337 86.6909 321.881 86.9518L297.548 100.957C297.103 101.213 296.733 101.581 296.476 102.025C296.219 102.469 296.084 102.973 296.085 103.485V131.495C296.085 132.549 296.68 133.503 297.596 134.024L321.734 147.737C322.626 148.244 323.714 148.283 324.611 147.785L339.24 139.664C339.704 139.407 340.018 138.928 340.02 138.4C340.023 138.144 339.956 137.891 339.828 137.669C339.699 137.446 339.513 137.262 339.289 137.136L314.81 123.131C314.352 122.87 314.03 122.342 314.03 121.818V113.065C314.03 112.541 314.355 112.061 314.81 111.801L322.417 107.424C322.639 107.295 322.892 107.228 323.148 107.228C323.405 107.228 323.658 107.295 323.88 107.424L331.486 111.801C331.709 111.928 331.894 112.112 332.023 112.334C332.151 112.556 332.219 112.808 332.218 113.064V119.97C332.217 120.226 332.285 120.478 332.413 120.7C332.542 120.922 332.727 121.106 332.949 121.234C333.406 121.496 333.957 121.497 334.412 121.234L348.993 112.774C349.437 112.517 349.807 112.148 350.064 111.704C350.32 111.261 350.456 110.757 350.456 110.245V103.486C350.456 102.442 349.9 101.481 348.993 100.957L324.807 86.9518C324.362 86.6953 323.857 86.5605 323.343 86.5625ZM250.589 107.473C250.717 107.473 250.866 107.504 250.98 107.57L259.318 112.384C259.545 112.514 259.709 112.756 259.709 113.016V122.644C259.709 122.906 259.546 123.146 259.318 123.277L250.98 128.091C250.868 128.154 250.742 128.188 250.614 128.188C250.486 128.188 250.36 128.154 250.248 128.091L241.91 123.277C241.683 123.146 241.52 122.906 241.52 122.644V113.016C241.52 112.755 241.684 112.516 241.91 112.384L250.248 107.57C250.351 107.507 250.469 107.473 250.59 107.474L250.589 107.473Z" fill="#404137"/>
<path d="M177.787 86.4165C177.281 86.4165 176.779 86.5449 176.325 86.8058L151.993 100.762C151.082 101.285 150.529 102.293 150.529 103.339V131.349C150.529 132.397 151.083 133.354 151.993 133.878L176.325 147.883C176.769 148.14 177.274 148.276 177.788 148.276C178.302 148.276 178.806 148.14 179.251 147.883L203.583 133.878C204.029 133.622 204.398 133.254 204.655 132.81C204.912 132.366 205.047 131.862 205.046 131.349V103.339C205.046 102.292 204.493 101.285 203.583 100.762L179.251 86.8058C178.806 86.5496 178.301 86.4153 177.787 86.4165ZM323.295 111.412C323.198 111.412 323.09 111.412 323.003 111.461L318.322 114.184C318.234 114.232 318.161 114.302 318.11 114.388C318.058 114.473 318.031 114.571 318.029 114.67V120.019C318.029 120.22 318.145 120.405 318.322 120.506L323.003 123.18C323.178 123.281 323.365 123.281 323.539 123.18L328.22 120.505C328.307 120.456 328.379 120.386 328.431 120.301C328.482 120.216 328.51 120.118 328.513 120.019V114.67C328.51 114.57 328.482 114.473 328.431 114.388C328.379 114.303 328.307 114.232 328.22 114.184L323.539 111.46C323.452 111.409 323.392 111.412 323.295 111.412Z" fill="#83CD29"/>
</g>
<defs>
<clipPath id="clip0_3_59">
<rect width="347" height="98" fill="white" transform="translate(77 51)"/>
</clipPath>
</defs>
</svg>
