<svg width="500" height="200" viewBox="0 0 500 200" fill="none" xmlns="http://www.w3.org/2000/svg">
<rect width="500" height="200" fill="white"/>
<g clip-path="url(#clip0_3_42)">
<path d="M168.901 57.0718V123.34L177.466 123.373V91.8302H198.157V83.4817H177.466V65.4203H204.4V57.0718H168.901ZM219.862 70.5204C222.967 70.5204 225.451 68.0191 225.451 64.9655C225.451 61.912 222.934 59.4107 219.862 59.4107C216.756 59.4107 214.272 61.912 214.272 64.9655C214.272 68.0191 216.789 70.5204 219.862 70.5204ZM215.514 78.8689V123.34H224.079V78.8689H215.514Z" fill="black"/>
<path fill-rule="evenodd" clip-rule="evenodd" d="M255.884 77.5693C244.476 77.5693 236.533 87.1523 236.533 98.5219C236.533 109.891 244.476 119.474 255.884 119.474C261.114 119.474 265.396 117.46 268.534 114.212V120.092C268.534 127.466 262.716 133.605 255.099 133.605C252.354 133.605 249.641 132.566 247.483 131.071L243.168 138.478C246.601 140.687 250.687 141.954 255.067 141.954C267.227 141.954 277.066 132.176 277.066 120.092V78.8687H268.534V82.8318C265.396 79.5834 261.114 77.5693 255.884 77.5693ZM245.13 98.5219C245.13 91.4727 250.556 85.9179 256.832 85.9179C263.108 85.9179 268.534 91.4727 268.534 98.5219C268.534 105.571 263.108 111.126 256.832 111.126C250.556 111.126 245.13 105.571 245.13 98.5219Z" fill="black"/>
<path d="M308.021 85.9179C302.954 85.9179 298.836 90.2058 298.836 95.2409V123.34H290.271V78.8687H298.836V82.9293C301.353 79.7133 305.046 77.5693 309.884 77.5693C315.899 77.5693 320.508 80.5254 323.188 85.0733C326.163 80.6879 331.001 77.5693 336.852 77.5693C346.625 77.5693 352.705 85.3981 352.738 95.0785V123.34H344.174V95.2084C344.174 90.1733 340.055 85.8854 334.989 85.8854C329.922 85.8854 325.803 90.1733 325.803 95.2084V123.34H317.239V95.2084C317.206 90.1733 313.088 85.9179 308.021 85.9179Z" fill="black"/>
<path fill-rule="evenodd" clip-rule="evenodd" d="M398.436 83.9038C394.611 79.9732 389.381 77.5693 383.334 77.5693C370.586 77.5693 361.499 88.3217 361.499 101.121C361.499 113.92 370.553 124.672 383.334 124.672C389.381 124.672 394.611 122.236 398.436 118.337V123.34H407V78.8687H398.436V83.9038ZM370.095 101.121C370.095 92.6422 376.633 85.9179 384.282 85.9179C391.898 85.9179 398.469 92.6097 398.469 101.121C398.469 109.599 391.931 116.323 384.282 116.323C376.633 116.291 370.095 109.599 370.095 101.121Z" fill="black"/>
<path d="M121.798 100.016C121.798 92.1226 128.237 85.6907 136.213 85.6907C144.156 85.6907 150.629 92.0901 150.629 100.016C150.629 107.91 144.189 114.342 136.213 114.342C128.27 114.342 121.798 107.91 121.798 100.016Z" fill="#1ABCFE"/>
<path d="M93 128.635C93 120.741 99.4395 114.309 107.415 114.309H121.831V128.635C121.831 136.529 115.391 142.961 107.415 142.961C99.4395 142.961 93 136.561 93 128.635Z" fill="#0ACF83"/>
<path d="M121.798 57.0718V85.6907H136.213C144.156 85.6907 150.629 79.2912 150.629 71.365C150.629 63.4712 144.189 57.0393 136.213 57.0393H121.798V57.0718Z" fill="#FF7262"/>
<path d="M93 71.3975C93 79.2912 99.4395 85.7231 107.415 85.7231H121.831V57.0718H107.415C99.4395 57.0718 93 63.4712 93 71.3975Z" fill="#F24E1E"/>
<path d="M93 100.016C93 107.91 99.4395 114.342 107.415 114.342H121.831V85.6907H107.415C99.4395 85.6907 93 92.1226 93 100.016Z" fill="#A259FF"/>
</g>
<defs>
<clipPath id="clip0_3_42">
<rect width="314" height="86" fill="white" transform="translate(93 57)"/>
</clipPath>
</defs>
</svg>
